<svg id="ea3oVUQ8rt71" xmlns="http://www.w3.org/2000/svg" xmlns:xlink="http://www.w3.org/1999/xlink" viewBox="0 0 1920 1080" shape-rendering="geometricPrecision" text-rendering="geometricPrecision"><g transform="matrix(2.388518 1.063448-1.063446 2.388513 842.527662-265.986847)"><g><path id="ea3oVUQ8rt74" d="M110,13.09v-.64v0-.25v0l-.4.16c0,0,0,0,0,0l.23-.25c0,0,0,0,0,0l-.1.06c0,0,0,0,0,0l.22-.31c0,0,0-.05,0,0-.163259.069074-.330175.129164-.5.18s.35-.27.56-.41s0,0,0,0h-.27c-.01725-.008354-.028206-.025834-.028206-.045s.010956-.036646.028206-.045l.22-.19c.049742-.032253.073776-.09234.06-.15l-.12-1-.07-.44c-.017214-.09675-.080721-.178936-.17-.22l-.48-.15c-.027614,0-.05-.022386-.05-.05s.022386-.05.05-.05h.47c.044183,0,.08-.035817.08-.08l-.07-.43c-.036248-.235745-.107007-.464868-.21-.68L109,7.41c0,0,0,0-.06-.09-.025521-.059067-.085872-.095278-.15-.09h-.43c-.021699.005226-.044506-.002024-.059204-.018822s-.018856-.040365-.010796-.061178c.006183-.027089-.000492-.055515-.018087-.07702s-.044136-.033677-.071913-.03298h-.32c0,0,0-.09,0-.09.267241-.054372.531035-.124494.79-.21v0v0h-.09c0,0-.89-1.43-.93-1.47l-.74-.72-.1-.07-.48-.29c-.080961-.044476-.179039-.044476-.26,0-.212124.095359-.407866.223604-.58.38s-.1,0-.08-.06c.084179-.186975.138182-.386114.16-.59.016488-.119315-.03334-.238135-.13-.31v0l-.37-.27-1-.59h-.06-.05c-.088017-.044552-.191983-.044552-.28,0-.29.17-.62.36-.92.55.11-.19.21-.4.3-.6c0,0,0-.07-.06,0-.29.24-.61.53-.77.69s-.06,0,0,0l.46-.91c.015187-.021773.016752-.050263.00404-.073567s-.037512-.037414-.06404-.036433L102,2.15h-.08L101.73,2c-.028305-.014263-.061695-.014263-.09,0-.042905.00862-.087095.00862-.13,0-.38,0-.58.76-.71,1.12-.027898.094746-.079529.180798-.15.25-.510475.634903-.978173,1.303043-1.4,2-.023541.029564-.064559.038623-.098361.021722s-.051166-.055151-.041639-.091722L100.49,2c.035324-.088703.032877-.187987-.006774-.274842s-.113065-.153742-.203226-.185158h-.07c-.07383-.029493-.15617-.029493-.23,0h-.07c-.071029.026001-.148971.026001-.22,0l-.22-.06c-.0324-.025015-.0776-.025015-.11,0-1.611177,2.289145-2.787425,4.855195-3.47,7.57c0,.06-.1,0-.09,0c.67-4.17,1.45-7.65,1.6-8.28c0,0,0-.05,0,0v0c0,0,0,0,0,0v0v.06v0c-.42768,1.12395-.762142,2.281188-1,3.46-.27,1,.32-2.55.49-3.53.044183-.09665.00165-.210817-.095-.255s-.210817-.00165-.255.095v0c-.027843-.009473-.058319-.007402-.084625.005751s-.046248.036291-.055375.064249c-.09.23-.2.51-.33.86.024615-.215968.024615-.434032,0-.65-.011988-.234039-.188013-.426829-.42-.46h-.17c-.082048-.012768-.160228.039352-.18.12-.22.92-.66,2.68-1.46,5.81-.01516.05086-.061928.085722-.115.085722s-.09984-.034862-.115-.085722c.233779-2.048777.166398-4.120741-.2-6.15-.015948-.096024-.086181-.17406-.18-.2L93,0h-.33c-.044183,0-.08.035817-.08.08-.06.72-.2,2.25-.54,4.44c0,.027614-.022386.05-.05.05s-.05-.022386-.05-.05C92.05,3,92,1.21,92,0.35c.00027-.05934-.024579-.116025-.068401-.156037s-.102528-.059615-.161599-.053963l-1.33.35c-.115846.021271-.217437.090208-.28.19v0c-.92,1.63-1.65,5-2.25,7.81c0,.06-.1,0-.09,0c.291362-2.505157.847812-4.972312,1.66-7.36.035899-.035899.035899-.094101,0-.13s-.094101-.035899-.13,0l-.61.31-.32.21c-.201511.132654-.36107.319962-.46.54-.619878,1.627443-1.117917,3.298715-1.49,5c0,.055228-.044772.1-.1.1s-.1-.044772-.1-.1c.177315-1.628268.570776-3.225655,1.17-4.75v0l-1.2,1L84.5,5c-.141972.14369-.260122.3091-.35.49l-.32.63c-.009538.021877-.031134.036021-.055.036021s-.045462-.014144-.055-.036021v0c0,0,0,0,0,0v-.16c-.010282-.035946-.010282-.074054,0-.11.052538-.26342.119302-.523801.2-.78-.004344-.043224-.004344-.086776,0-.13.07-.18.18-.43.24-.57v0l-.18.1c-.083829.146635-.15412.300606-.21.46s0,0,0,0v0l.06-.31v0l-.26.21c-.04433.166137-.097743.329716-.16.49s-.06,0-.06,0s0-.18,0-.28v0c-.129278.139751-.246371.290299-.35.45-.09.32-.15.66-.25,1v0c-.107119.175982-.200721.359844-.28.55v.05c-.18.77-.42,1.54-.58,2.31-.06.28-.14.56-.2.83-.010939.032392-.031966.060429-.06.08s0,0,0,0c-.00181.026636-.00181.053364,0,.08v.06c-.062074.06656-.115804.140438-.16.22v.09c-.019076.043754-.062269.072042-.11.072042s-.090924-.028288-.11-.072042l-.29-.49c-.085666-.147241-.225711-.254968-.39-.3v0c-.133707-.038281-.25686-.106699-.36-.2v0c-.011116-.016759-.02989-.026834-.05-.026834s-.038884.010075-.05.026834v0c.000601.187225-.051371.370859-.15.53l-.26.42v0l-.26.48v0l-.07.16v.05-.24c0,0,0,0,0,0l-.55,1.66c-.06,0-.1,0-.08-.16s.09-.42.13-.64c.008552-.033883-.005878-.069396-.03564-.087711s-.067967-.015193-.09436.007711v0c-.210965.158973-.368041.378879-.45.63l-.09.24c-.012656.021061-.035429.033944-.06.033944s-.047344-.012883-.06-.033944s0-.1-.11,0c-.007784.019243-.007784.040757,0,.06-.06.29-.09.29-.18.62l-.15.27c-.049259.143983-.08934.290944-.12.44l-.09.36v0-.08c0,0,0-.09,0-.11s-.08,0-.08,0v.06v0c-.311016.413259-.598152.843962-.86,1.29-.018986.009006-.041014.009006-.06,0v0c-.022615.00095-.044294-.009095-.058191-.026963s-.018296-.041351-.011809-.063037v-.06c.15-.64.3-1.27.44-1.91.072302-.172247.13245-.349347.18-.53.08-.5.61-1.92.58-1.89.41-1.29.45-1.76.33-1.84v0c-.14-.08-.48.35-.69.64-1,1.94-2.67,3.52-5.3,5.19v0l-.13.08v0L70,16c-2.12,1.24-4.34,2.35-4.38,2.37-.769001.360134-1.451203.882018-2,1.53s0,0,0,0v0c0,0,0,0,0,0s0,0,0,0c-.111258.173511-.211457.353869-.3.54.003283.023218.003283.046782,0,.07-.34.59-.57,1.21-.9,1.79-.13.23-.18.52-.31.75s-.33.77-.53,1.13c-.431435.817789-.808908,1.662927-1.13,2.53-.246813.585412-.453947,1.186771-.62,1.8c0,.11-.08.22-.13.33-.11.51-.27,1-.41,1.52-.01547.008932-.03453.008932-.05,0v0c.05-.22.09-.45.14-.67.21-1.09.44-2.16.68-3.23.1-.44.31-.88.42-1.32.045129-.384904.118663-.765943.22-1.14l.16-.46c.24-.44.43-.9.69-1.33s.4-.59.61-.88c.111346-.265837.201624-.540015.27-.82.017227-.035494.006004-.078248-.026435-.100706s-.076406-.017912-.103565.010706v0c-.171344.107352-.329146.234936-.47.38-.14.12-.3.23-.47.36v0l-.15.12c-.841373.602235-1.716101,1.156451-2.62,1.66-.649875.363665-1.25413.803428-1.8,1.31v0l-.15.15v0c-.326082.269412-.624248.570928-.89.9-.42.61-.82,1.23-1.19,1.87-.15.26-.26.55-.41.82c0,.08,0,.16-.08.24-.117215.23466-.214232.478875-.29.73-.049322.090434-.092746.183963-.13.28-.14.6-.37,1.19-.51,1.8-.29,1.29-.53,2.59-.8,3.89-.14.69-.39,1.35-.55,2-.091394.348616-.225757.684524-.4,1-.07.18-.14.35-.2.53-.26.46-.51.94-.81,1.38-.105323.146299-.218838.286523-.34.42-.09.1-.22.16-.29.26v0c-.014886.003042-.030347-.00085-.042019-.010577s-.018289-.024233-.017981-.039423c.11-.44.43-.84.53-1.28.18-.76.4-1.5.51-2.28.15-1.09.12-2.21.17-3.34.045812-1.914979.236355-3.823754.57-5.71.151935-.809629.425001-1.591742.81-2.32.13-.24.19-.53.32-.76s.34-.66.52-1l.05-.1v-.15c-.003572-.026547-.003572-.053453,0-.08s0-.08,0-.11-.07-.19-.14-.14-.11.14-.17.15c-.035131.015008-.074869.015008-.11,0s-.41.47-.51.61l-.06.11v.12v0c-.13.17-.3.27-.42.44s-.32.54-.47.8c0,0,0,0,0,0-.017594.001502-.034677-.006387-.04494-.020757s-.012187-.033087-.00506-.049243c.004336-.019765.004336-.040235,0-.06c0-.11,0-.23.07-.34v.05c-.044495.059743-.102834.107787-.17.14-.27.14-.58.79-.7,1-.089603.112912-.190086.216744-.3.31l-.28.7v0l-.07.07c0,0,0,0,0,0s0,0,0,0v-.1l.16-.74c.003635-.019455-.002558-.039452-.016553-.053447s-.033992-.020188-.053447-.016553v0c-.84716.284743-1.653871.678015-2.4,1.17s-.08,0,0-.05.18-.25.21-.31v0c0,0,0,0,0,0-.161733.094054-.315571.201072-.46.32l-1,.7c-.038698-.028345-.091302-.028345-.13,0v0c-.12.13-.23.29-.35.42-.070372.085527-.159283.15392-.26.2v0c-.095344.041261-.180629.102666-.25.18l-1,1.09v0c-.446013.493164-.860184,1.014218-1.24,1.56-.126057.23231-.236307.472856-.33.72l-.06.17c-.013841.042691-.047309.076159-.09.09v0c-.0396.00633-.079905-.00597-.109223-.033333s-.044365-.066725-.040777-.106667c0-.12,0-.23,0-.35.118262-.478188.332613-.927304.63-1.32l.08-.13.13-.28h-.21c-.083975.006514-.165691.030348-.24.07v0l-.34.19c-.15986.082027-.299807.198081-.41.34-.193681.233049-.364469.484209-.51.75-.14.26-.19.59-.35.85-.06.07-.14.11-.19.19s-.16.3-.25.43-.21.22-.3.36-.19.47-.31.69c-.466227.918998-.761045,1.915279-.87,2.94c0,.16,0,.3,0,.47-.030376.205531-.050401.412459-.06.62c0,1.28,0,2.63,0,3.9c0,.3,0,.68,0,1c0,.044183-.035817.08-.08.08s-.08-.035817-.08-.08v0c0-.52-.15-1.06-.22-1.59-.05-.34-.17-.61-.22-1-.09-.66-.24-1.34-.32-2-.082158-.389633-.142254-.783593-.18-1.18-.009873-1.606302.066905-3.211968.23-4.81.019952-.289657.019952-.580343,0-.87l-.06-.45c0-.19,0-.41,0-.59-.029572-.259159-.029572-.520841,0-.78v0c-.06.15-.14.4-.2.62s0,.39,0,.39-.07.09-.09.06v-.15c-.09.14-.16.28-.24.42v.06c-.02309.062037-.069841.112384-.13.14v0c-.090137.116164-.164141.243991-.22.38v0l-.09.06c-.049202.069703-.092678.143277-.13.22v0c.057089-.130566.107161-.26409.15-.4c0-.23.12-.47.16-.71-.005404-.106598-.005404-.213402,0-.32v0c-.236455.364826-.440565.749624-.61,1.15-.090764.130155-.164685.271277-.22.42-.047294.23192-.114201.459405-.2.68-.09.14-.24.22-.33.35s-.29.46-.43.69c-.613606.926565-1.044657,1.961766-1.27,3.05-.049382.404753-.072763.812255-.07,1.22-.019978.142637-.019978.287363,0,.43c0-.05-.06-.2-.08-.29-.05-.28-.16-.51-.21-.79-.13-.79-.31-1.59-.44-2.34-.01644-.107294-.073781-.204057-.16-.27-.060091-.16676-.09055-.342745-.09-.52-.004362-.036702-.033298-.065638-.07-.07v0c-.022095-.01075-.047905-.01075-.07,0c0,.1,0,.2-.05.29v0c-.013273-.016858-.033544-.026699-.055-.026699s-.041727.009841-.055.026699c-.080163.156859-.134206.325743-.16.5-.009762.073008-.009762.146992,0,.22.01253.115923-.023693.231838-.1.32v0v0c-.009538-.021877-.031134-.036021-.055-.036021s-.045462.014144-.055.036021c-.032456.043274-.05.095907-.05.15v0c-.06-.16-.1-.32-.15-.48-.011639-.031355-.041554-.052161-.075-.052161s-.063361.020806-.075.052161c0,.14,0,.29,0,.43c0,.5,0,1,0,1.56c0,1.07.09,2.16.12,3.26c0,.71.19,1.39.26,2.1s.14,1.11.2,1.7c.002867.218937.029693.436902.08.65-.108872-.224158-.183051-.463556-.22-.71l-.55-1.65c-.142377-.282587-.249833-.58145-.32-.89-.05-.25-.22-.48-.26-.7l-.15-.33c-.143157-.293653-.263513-.597884-.36-.91l-.21-.48c-.1-.54-.48-1-.58-1.55-.103394-.3126-.24443-.611461-.42-.89-.15-.33-.3-.66-.46-1-.08-.11-.12-.27-.21-.39L29,35.49c-.027227-.038804-.07625-.055802-.121654-.042181s-.076976.054798-.078346.102181c-.015687.193015-.015687.386985,0,.58.012504.021658.012504.048342,0,.07-.005927.022957-.005927.047043,0,.07c0,.34,0,.71,0,1.06-.011639.031355-.041554.052161-.075.052161s-.063361-.020806-.075-.052161l-.09-.17c-.01409-.025465-.040897-.04127-.07-.04127s-.05591.015805-.07.04127c-.047794.304462-.074524.611858-.08.92-.067752.228616-.114611.462911-.14.7.032804.491295.103007.979376.21,1.46c0,.15.08.3.13.45.07.51.34,1.05.44,1.58l.19.49c.06.3.27.61.32.93s.22.49.27.76.19.4.23.62.2.4.24.61c.100958.341191.224566.675266.37,1c.011761.019846.011102.044676-.001694.06387s-.035464.029353-.058306.02613v0c-.2.06-.37-.27-.5-.39-.43-.43-.84-.91-1.29-1.33-.466979-.46376-.979577-.879199-1.53-1.24l-.59-.25c-.05,0-.08,0-.12,0-.19-.11-.33-.27-.51-.38l-.37-.11c-.24-.14-.48-.42-.75-.46-.1,0-.18,0-.27,0s-.39-.14-.58-.18c-.053217-.004972-.106783-.004972-.16,0-.041204.001978-.079439.022027-.104498.054796s-.034389.074921-.025502.115204v0c0,.36.23.34.45.5s.12.15.2.19v0v0c-.028528.004234-.052569.023496-.062922.050415s-.005416.057325.012922.079585c.5.64,1.13,1.11,1.65,1.68.219653.230061.420309.477537.6.74l.3.67.35.5c.1.14,0,.22,0,.32s.1.13.15.23c-.22648.067512-.456921.120947-.69.16-.37.07-.72.21-1.07.27-.64.1-1.27.36-1.89.46-.39.07-.7.23-1.08.3-1.28.22-2.57.7-3.85.91-.18,0-.28.11-.46.14-.76.13-1.5.42-2.27.54s-1.38.37-2.1.49c-1.72.29-3.43.83-5.14,1.13-.15,0-.23.09-.36.11-.66.1-1.35.34-2,.45l-.59.17c-1,.18-2.12.64-3.19.84-.42.07-.8.27-1.2.34l-.53.19c-.7.14-.94.5-.87,1c.14,1,1.07.63,1.67.57c1.1-.11,2.23-.31,3.35-.47.55-.08,1-.26,1.59-.33c1.48-.22,3-.67,4.46-.92.57-.09,1.11-.3,1.66-.39l.47-.13c.59-.1,1.23-.32,1.82-.42l.71-.2c.82-.14,1.67-.45,2.48-.59l.86-.24c.92-.16,1.86-.52,2.78-.68l1-.27c1.31-.23,2.65-.79,4-1c.63093-.215674,1.280319-.373,1.94-.47.068645.003208.126331.052653.14.12v0c-.012503.025201-.012503.054799,0,.08.025505.011131.054495.011131.08,0s.07,0,.08,0s.06.3.18.34v0c0,0,0,0,0,0s0-.12,0-.18c.008632-.08311.008632-.16689,0-.25s0,0,0,0v0c.05,0,.06,0,.07,0s0,0,.05,0c.064087.177044.14443.347772.24.51.032192.046851.059027.097166.08.15v0c.017022-.240283-.013563-.481563-.09-.71s0-.06.05-.07v0c0,0,0,0,.06,0c.037953.044776.068352.095441.09.15l.17.47c.06.36.15.74.2,1.08s.15.19.17.38c.009983.193204.009983.386796,0,.58.019966.139288.019966.280712,0,.42v0l.07-.07c0,0,.06,0,.08,0v0c.01965.034034.01965.075966,0,.11c0,.2.05.42,0,.63.05999-.101692.110214-.208837.15-.32v0v0c.062848.213982.08323.438192.06.66s0,.07.07,0c.097893-.090647.155499-.216659.16-.35v0v0c0,.05.05.09.1.05s.13-.3.22-.45v0h.07c.184342-.345476.286974-.728636.3-1.12.005013-.049874.005013-.100126,0-.15-.023551-.050733-.023551-.109267,0-.16v0-.06c.025801-.088612.045843-.1788.06-.27c0-.12.1-.25.13-.37.140888-.657348.164585-1.334411.07-2-.019057-.019442-.019057-.050558,0-.07v0c.019442-.019057.050558-.019057.07,0c.08.17.15.34.23.52.28.38.43.84.71,1.19.43.54.8,1.15,1.23,1.7.15.2.25.45.39.65l.18.33c.32.43.52,1,.84,1.46l.21.41c.19.25.39.47.57.69.016675.025138.044834.040251.075.040251s.058325-.015113.075-.040251c.004679-.019726.004679-.040274,0-.06v0c.010718-.018564.010718-.041436,0-.06v0c.11.08.18.25.29.34.127755.117968.272755.215759.43.29.030376.055228.099772.075376.155.045s.075376-.099772.045-.155c-.197087-.381826-.351357-.78427-.46-1.2-.026248-.071888-.063344-.139336-.11-.2-.082595-.193382-.146226-.394324-.19-.6-.08-.36-.42-.66-.46-.94-.073885-.468453-.255295-.91342-.53-1.3-.08-.11-.11-.28-.19-.38s0-.05,0,0s.18.13.28.17c.114347.033718.23148.057145.35.07.024622.002269.048114-.010798.059172-.032914s.007416-.04875-.009172-.067086c-.13-.1-.29-.18-.41-.29s-.38-.33-.51-.48c-.027264-.079165-.0607-.156068-.1-.23l-.09-.13c0,0,0,0,0,0v0c0,0,0,0,0,0l.17.2c.465521.411801.975309.770665,1.52,1.07.18.1.77.49.94.27.12.06.31.09.4,0c.12.08.24.06.37.11s.18.12.28.18h.1c.073142.019054.149642-.015674.183444-.083278s.015685-.149641-.043444-.196722v0c-.25-.16-.55-.28-.8-.45-.042334-.026756-.082461-.056851-.12-.09-.029733-.024698-.046934-.061347-.046934-.1s.017201-.075302.046934-.1v0c.029382-.008611.060618-.008611.09,0h.12c.211823.081722.415961.182117.61.3.37446.218455.783793.370687,1.21.45.518936-.014006,1.033596-.098101,1.53-.25.086294-.021033.170101-.051203.25-.09v0c.156517-.099622.324372-.180192.5-.24.14,0,.08-.21-.09-.19v0c-.57905.03037-1.15096-.139085-1.62-.48l-.26-.16-.47-.61v0l-.81-.87v0c-.29-.35-.56-.75-.85-1.13-.100435-.138083-.187494-.285414-.26-.44v0c0,0,0,0,.06,0c.404192.530266.848856,1.028423,1.33,1.49l.22.24.86.74c2,1.37,5.88.64,5.88.64s1.59-.21,1.63-.24h.09.15c.039103-.017919.064174-.056987.064174-.1s-.025071-.082081-.064174-.1v0l-.2-.07c-.33-.1-.62-.2-.86-.29l-.39-.15c-1.096915-.474185-2.109978-1.122545-3-1.92-.41-.37-.77-.82-1.16-1.22l-.13-.15c0,0,0-.1.06-.06v0l1,1c1.098726,1.108369,2.451108,1.932155,3.94,2.4.23.05.86.28,1.3.43.213794.049895.436206.049895.65,0v0c.213072-.014924.426928-.014924.64,0l.35-.06h.05c0,0,0,0,0,0-.012915-.01139-.020314-.02778-.020314-.045s.007399-.03361.020314-.045v0c.092173-.164217.261956-.26986.45-.28.367807-.078744.744339-.109001,1.12-.09h.29c.06,0,.06-.11,0-.11v0c.19654.009992.39346.009992.59,0c.11,0,.22,0,.31,0v0v0c.196399-.014524.393601-.014524.59,0c.08,0,.14-.06.2-.05h.11c.021877-.009538.036021-.031134.036021-.055s-.014144-.045462-.036021-.055c-.170894-.005749-.341243-.02245-.51-.05-.16,0-.29,0-.44,0-.38-.05-.76-.13-1.13-.21-.653461-.128154-1.295538-.308738-1.92-.54l-.46-.17c-.26-.14-.53-.25-.77-.39-.46-.27-.89-.59-1.33-.9l-.1-.07c-.028345-.038698-.028345-.091302,0-.13.018983-.021525.0463-.033856.075-.033856s.056017.012331.075.033856l.61.43c.93844.485096,1.947496.819198,2.99.99.499868.152459,1.007195.279291,1.52.38.395375.045274.794625.045274,1.19,0c.14,0,.41-.09.58-.11.08343-.009359.16462-.03304.24-.07h.08v0c0,0,0,0,0-.05.281648-.04886.552466-.147031.8-.29.16814-.166605.36452-.302039.58-.4.173931-.037492.342082-.098026.5-.18h.15.06l.39-.18c.021877-.009538.036021-.031134.036021-.055s-.014144-.045462-.036021-.055L57,47v0h-.1l-.16.05c-.514182.036776-1.030085-.041805-1.51-.23v0l-.32-.11-.24-.11-.89-.5c-.51-.24-.95-.48-1.15-.58-.021525-.018983-.033856-.0463-.033856-.075s.012331-.056017.033856-.075v0c.029227-.0234.070773-.0234.1,0c1.069913.50951,2.198364.885661,3.36,1.12l1.3.33c0,0,1,.2,2.29.54.89.24,1.74.62,2.6.93.17.06.38.13.55.17l.32.06c.015021-.020916.015021-.049084,0-.07-.13-.09-.29-.13-.41-.21s-.11-.11-.18-.16v0c-.041521-.031467-.078533-.068479-.11-.11v0c0,0-.13,0-.17-.08l-.07-.08-.06-.11-.15-.06-.22-.14v0v0c0,0,0,0,0,0v0c.024752-.014291.055248-.014291.08,0c.103693.053188.210562.099943.32.14.26.06.52.15.77.21h.22c0,0,0,0,0,0s0,0,0,0c-.146901-.058858-.297165-.108946-.45-.15-.086286-.037402-.169827-.080843-.25-.13l-.82-.3c-1.366558-.508052-2.70218-1.095726-4-1.76-1.074843-.724227-2.079257-1.547847-3-2.46l-.21-.2v0c-.071797-.063513-.078513-.173203-.015-.245s.173203-.078513.245-.015c1,.67,1.91,1.4,2.91,2c.38.21.82.32,1.19.52.875469.379791,1.777955.69399,2.7.94.181419.034777.36535.054843.55.06.11,0,.22-.06.33,0h.05v0l.61-.33.64-.41.16-.14v0c-.033391-.035451-.074434-.062812-.12-.08v0c.289547-.032265.570801-.11698.83-.25v0c.028012-.02857.036298-.071087.021063-.108085s-.051055-.061353-.091063-.061915c-.22441.004492-.448742-.012249-.67-.05-.171205-.0286-.338836-.075537-.5-.14l-.47-.14c-1.267811-.400119-2.450939-1.030669-3.49-1.86-.208756-.152308-.409053-.315885-.6-.49.000683-.021085.012389-.040261.03083-.050506s.040907-.010053.05917.000506c.25.16.5.32.76.47.63.39,1.3.7,1.95,1.06.2.12.46.17.67.28l.16.09c1.029354.410928,2.166992.46376,3.23.15.355867-.223817.743604-.392399,1.15-.5.306414-.09582.621118-.162779.94-.2L68,43h.09c.43,0,1,0,1.23,0s0,0,0,0s0,0-.06-.05v0c-.070946-.110614-.039743-.257715.07-.33l.19-.13c.036015-.009774.073985-.009774.11,0v0c.099092-.029922.195991-.066677.29-.11.27,0,.79-.21,1.07-.25s1.42-.6,1.6-.58c.291678-.102909.588793-.189707.89-.26l.22-.12c.170159-.03752.337288-.087659.5-.15.044885-.012319.081507-.044777.099131-.087856s.01425-.091898-.009131-.132144v0c-.019625-.038505-.057103-.06474-.1-.07h-.23c0,0-.06,0-.06,0-.011131-.025505-.011131-.054495,0-.08.193178-.070891.390149-.130984.59-.18.18,0,.37-.25.51-.25l.21-.09v0h-.16v0v0l.26-.14.66-.28.83-.41.7-.42L78.76,38l.37-.29l1.42-1.11c.042441-.038885.089452-.072465.14-.1v0c.390874-.211936.818456-.347676,1.26-.4v0c.09,0,.13-.07.19-.09.11977-.010506.24023-.010506.36,0c.109812-.00909.220188-.00909.33,0l.33.07h.13.28.26c.13728-.010636.270486-.051622.39-.12.050548-.027535.097559-.061115.14-.1l.1-.09v0l.32-.3v0L85,35l.09-.09v0c.061241-.051158.128385-.094802.2-.13l.12-.06c.195567-.101176.432976-.073478.6.07.08.07.12,0,.11-.06-.143431-.244319-.406708-.393128-.69-.39v0c0,0-.6,0-.83,0-.032448.006004-.065878-.002876-.091069-.024191s-.039482-.052815-.038931-.085809c.003873-.055385.045234-.100882.1-.11h.17v0l.44-.08c.468154-.068025.908008-.26544,1.27-.57l.06-.06.72-.87.59-.73v0c.002994-.043664.02491-.083843.06-.11.271768-.24818.528869-.511959.77-.79.144999-.077393.295389-.144233.45-.2.071516-.029959.136168-.074195.19-.13h.06-.09c0,0,0,0,0,0v0c.233839-.209163.481027-.402904.74-.58l.24-.13c.055296-.020129.106217-.050682.15-.09.266318-.191326.555152-.349177.86-.47l.17-.08c.09208-.041138.189852-.068109.29-.08.401103-.059992.808897-.059992,1.21,0v0l.63.2h.09c.162805.078713.333855.139084.51.18h.12c.056234.009905.113766.009905.17,0h.15.06c.17-.09-.17-.23-.28-.26L94,29.12l-1-.44v0c-.061268-.075794-.078717-.177995-.046067-.269824s.110702-.160073.206067-.180176c.25-.06.5-.12.75-.16v0c.04871-.011175.089401-.044467.11-.09v0c.028616-.04318.028864-.099229.000633-.142661s-.079554-.06596-.130633-.057339h-.09c0,0-.15,0-.18-.08s.1-.14.12-.15h.06l.29-.09h.1c.508833-.136422.996668-.341649,1.45-.61v0l1.15-.87.2-.14v0l.2-.17l5.1-3.75.17-.08c.036256-.009341.061184-.042579.06-.08v0c.001743-.030115-.011717-.059101-.03585-.077201s-.055727-.022905-.08415-.012799h-.14c0,0-.07,0-.07-.05-.013333-.032-.013333-.068,0-.1.079523-.065123.163017-.125239.25-.18v0l.8-.54.83-.43.23-.15h.06v0l.38-.25.87-.62h.05v0l.49-.44.07-.11v0c-.036075-.009315-.073925-.009315-.11,0s0,0,0,0s.18-.12.11-.12c-.026585-.010626-.044019-.03637-.044019-.065s.017434-.054374.044019-.065l.21-.05h.06l.24-.11h-.23c0,0,0,0,0,0c.297044-.104494.576801-.252799.83-.44v0c-.009774-.036015-.009774-.073985,0-.11.240321-.196564.452326-.425395.63-.68l.18-.33v0-.06c-.006155-.016098-.006155-.033902,0-.05v0v0c-.123143-.009683-.246857-.009683-.37,0s0,0,0,0h.13c.202173-.056112.383147-.17096.52-.33v0c0,0,.29-.37,0-.34h-.17-.06c0,0,0,0,0,0c.13693-.06925.259175-.164329.36-.28v0c0,0,0,0,0,0-.056613.009831-.110882.030183-.16.06v0c0,0,0,0,0,0c.149477-.162838.286528-.336659.41-.52.01075-.022095.01075-.047905,0-.07v0v0v0c.036567-.09805.0835-.191916.14-.28v0c0,0,0,0,0,0v0v0l.06-.1c.069549-.156464.211667-.268662.38-.3.234141-.004922.456906-.101933.62-.27.023528-.007997.042003-.026472.05-.05v-.09c.187643-.333767.168228-.745378-.05-1.06Z" transform="matrix(.583672-.811989 0.811989 0.583672 171.892026-25.586142)" fill="#03d" fill-rule="evenodd"/></g></g><script><![CDATA[!function(t,n){"object"==typeof exports&&"undefined"!=typeof module?module.exports=n():"function"==typeof define&&define.amd?define(n):((t="undefined"!=typeof globalThis?globalThis:t||self).__SVGATOR_PLAYER__=t.__SVGATOR_PLAYER__||{},t.__SVGATOR_PLAYER__["5c7f360c"]=n())}(this,(function(){"use strict";function t(t,n){var e=Object.keys(t);if(Object.getOwnPropertySymbols){var r=Object.getOwnPropertySymbols(t);n&&(r=r.filter((function(n){return Object.getOwnPropertyDescriptor(t,n).enumerable}))),e.push.apply(e,r)}return e}function n(n){for(var e=1;e<arguments.length;e++){var r=null!=arguments[e]?arguments[e]:{};e%2?t(Object(r),!0).forEach((function(t){o(n,t,r[t])})):Object.getOwnPropertyDescriptors?Object.defineProperties(n,Object.getOwnPropertyDescriptors(r)):t(Object(r)).forEach((function(t){Object.defineProperty(n,t,Object.getOwnPropertyDescriptor(r,t))}))}return n}function e(t){return(e="function"==typeof Symbol&&"symbol"==typeof Symbol.iterator?function(t){return typeof t}:function(t){return t&&"function"==typeof Symbol&&t.constructor===Symbol&&t!==Symbol.prototype?"symbol":typeof t})(t)}function r(t,n){if(!(t instanceof n))throw new TypeError("Cannot call a class as a function")}function i(t,n){for(var e=0;e<n.length;e++){var r=n[e];r.enumerable=r.enumerable||!1,r.configurable=!0,"value"in r&&(r.writable=!0),Object.defineProperty(t,r.key,r)}}function u(t,n,e){return n&&i(t.prototype,n),e&&i(t,e),t}function o(t,n,e){return n in t?Object.defineProperty(t,n,{value:e,enumerable:!0,configurable:!0,writable:!0}):t[n]=e,t}function a(t){return(a=Object.setPrototypeOf?Object.getPrototypeOf:function(t){return t.__proto__||Object.getPrototypeOf(t)})(t)}function l(t,n){return(l=Object.setPrototypeOf||function(t,n){return t.__proto__=n,t})(t,n)}function s(){if("undefined"==typeof Reflect||!Reflect.construct)return!1;if(Reflect.construct.sham)return!1;if("function"==typeof Proxy)return!0;try{return Boolean.prototype.valueOf.call(Reflect.construct(Boolean,[],(function(){}))),!0}catch(t){return!1}}function f(t,n,e){return(f=s()?Reflect.construct:function(t,n,e){var r=[null];r.push.apply(r,n);var i=new(Function.bind.apply(t,r));return e&&l(i,e.prototype),i}).apply(null,arguments)}function c(t,n){if(n&&("object"==typeof n||"function"==typeof n))return n;if(void 0!==n)throw new TypeError("Derived constructors may only return object or undefined");return function(t){if(void 0===t)throw new ReferenceError("this hasn't been initialised - super() hasn't been called");return t}(t)}function h(t,n,e){return(h="undefined"!=typeof Reflect&&Reflect.get?Reflect.get:function(t,n,e){var r=function(t,n){for(;!Object.prototype.hasOwnProperty.call(t,n)&&null!==(t=a(t)););return t}(t,n);if(r){var i=Object.getOwnPropertyDescriptor(r,n);return i.get?i.get.call(e):i.value}})(t,n,e||t)}function v(t){return function(t){if(Array.isArray(t))return y(t)}(t)||function(t){if("undefined"!=typeof Symbol&&null!=t[Symbol.iterator]||null!=t["@@iterator"])return Array.from(t)}(t)||function(t,n){if(!t)return;if("string"==typeof t)return y(t,n);var e=Object.prototype.toString.call(t).slice(8,-1);"Object"===e&&t.constructor&&(e=t.constructor.name);if("Map"===e||"Set"===e)return Array.from(t);if("Arguments"===e||/^(?:Ui|I)nt(?:8|16|32)(?:Clamped)?Array$/.test(e))return y(t,n)}(t)||function(){throw new TypeError("Invalid attempt to spread non-iterable instance.\nIn order to be iterable, non-array objects must have a [Symbol.iterator]() method.")}()}function y(t,n){(null==n||n>t.length)&&(n=t.length);for(var e=0,r=new Array(n);e<n;e++)r[e]=t[e];return r}Number.isInteger||(Number.isInteger=function(t){return"number"==typeof t&&isFinite(t)&&Math.floor(t)===t}),Number.EPSILON||(Number.EPSILON=2220446049250313e-31);var g=d(Math.pow(10,-6));function d(t){var n=arguments.length>1&&void 0!==arguments[1]?arguments[1]:6;if(Number.isInteger(t))return t;var e=Math.pow(10,n);return Math.round((+t+Number.EPSILON)*e)/e}function p(t,n){var e=arguments.length>2&&void 0!==arguments[2]?arguments[2]:g;return Math.abs(t-n)<e}var m=Math.PI/180;function b(t){return t}function w(t,n,e){var r=1-e;return 3*e*r*(t*r+n*e)+e*e*e}function x(){var t=arguments.length>0&&void 0!==arguments[0]?arguments[0]:0,n=arguments.length>1&&void 0!==arguments[1]?arguments[1]:0,e=arguments.length>2&&void 0!==arguments[2]?arguments[2]:1,r=arguments.length>3&&void 0!==arguments[3]?arguments[3]:1;return t<0||t>1||e<0||e>1?null:p(t,n)&&p(e,r)?b:function(i){if(i<=0)return t>0?i*n/t:0===n&&e>0?i*r/e:0;if(i>=1)return e<1?1+(i-1)*(r-1)/(e-1):1===e&&t<1?1+(i-1)*(n-1)/(t-1):1;for(var u,o=0,a=1;o<a;){var l=w(t,e,u=(o+a)/2);if(p(i,l))break;l<i?o=u:a=u}return w(n,r,u)}}function A(){return 1}function k(t){return 1===t?1:0}function _(){var t=arguments.length>0&&void 0!==arguments[0]?arguments[0]:1,n=arguments.length>1&&void 0!==arguments[1]?arguments[1]:0;if(1===t){if(0===n)return k;if(1===n)return A}var e=1/t;return function(t){return t>=1?1:(t+=n*e)-t%e}}var S=Math.sin,O=Math.cos,j=Math.acos,M=Math.asin,P=Math.tan,E=Math.atan2,I=Math.PI/180,R=180/Math.PI,F=Math.sqrt,N=function(){function t(){var n=arguments.length>0&&void 0!==arguments[0]?arguments[0]:1,e=arguments.length>1&&void 0!==arguments[1]?arguments[1]:0,i=arguments.length>2&&void 0!==arguments[2]?arguments[2]:0,u=arguments.length>3&&void 0!==arguments[3]?arguments[3]:1,o=arguments.length>4&&void 0!==arguments[4]?arguments[4]:0,a=arguments.length>5&&void 0!==arguments[5]?arguments[5]:0;r(this,t),this.m=[n,e,i,u,o,a],this.i=null,this.w=null,this.s=null}return u(t,[{key:"determinant",get:function(){var t=this.m;return t[0]*t[3]-t[1]*t[2]}},{key:"isIdentity",get:function(){if(null===this.i){var t=this.m;this.i=1===t[0]&&0===t[1]&&0===t[2]&&1===t[3]&&0===t[4]&&0===t[5]}return this.i}},{key:"point",value:function(t,n){var e=this.m;return{x:e[0]*t+e[2]*n+e[4],y:e[1]*t+e[3]*n+e[5]}}},{key:"translateSelf",value:function(){var t=arguments.length>0&&void 0!==arguments[0]?arguments[0]:0,n=arguments.length>1&&void 0!==arguments[1]?arguments[1]:0;if(!t&&!n)return this;var e=this.m;return e[4]+=e[0]*t+e[2]*n,e[5]+=e[1]*t+e[3]*n,this.w=this.s=this.i=null,this}},{key:"rotateSelf",value:function(){var t=arguments.length>0&&void 0!==arguments[0]?arguments[0]:0;if(t%=360){var n=S(t*=I),e=O(t),r=this.m,i=r[0],u=r[1];r[0]=i*e+r[2]*n,r[1]=u*e+r[3]*n,r[2]=r[2]*e-i*n,r[3]=r[3]*e-u*n,this.w=this.s=this.i=null}return this}},{key:"scaleSelf",value:function(){var t=arguments.length>0&&void 0!==arguments[0]?arguments[0]:1,n=arguments.length>1&&void 0!==arguments[1]?arguments[1]:1;if(1!==t||1!==n){var e=this.m;e[0]*=t,e[1]*=t,e[2]*=n,e[3]*=n,this.w=this.s=this.i=null}return this}},{key:"skewSelf",value:function(t,n){if(n%=360,(t%=360)||n){var e=this.m,r=e[0],i=e[1],u=e[2],o=e[3];t&&(t=P(t*I),e[2]+=r*t,e[3]+=i*t),n&&(n=P(n*I),e[0]+=u*n,e[1]+=o*n),this.w=this.s=this.i=null}return this}},{key:"resetSelf",value:function(){var t=arguments.length>0&&void 0!==arguments[0]?arguments[0]:1,n=arguments.length>1&&void 0!==arguments[1]?arguments[1]:0,e=arguments.length>2&&void 0!==arguments[2]?arguments[2]:0,r=arguments.length>3&&void 0!==arguments[3]?arguments[3]:1,i=arguments.length>4&&void 0!==arguments[4]?arguments[4]:0,u=arguments.length>5&&void 0!==arguments[5]?arguments[5]:0,o=this.m;return o[0]=t,o[1]=n,o[2]=e,o[3]=r,o[4]=i,o[5]=u,this.w=this.s=this.i=null,this}},{key:"recomposeSelf",value:function(){var t=arguments.length>0&&void 0!==arguments[0]?arguments[0]:null,n=arguments.length>1&&void 0!==arguments[1]?arguments[1]:null,e=arguments.length>2&&void 0!==arguments[2]?arguments[2]:null,r=arguments.length>3&&void 0!==arguments[3]?arguments[3]:null,i=arguments.length>4&&void 0!==arguments[4]?arguments[4]:null;return this.isIdentity||this.resetSelf(),t&&(t.x||t.y)&&this.translateSelf(t.x,t.y),n&&this.rotateSelf(n),e&&(e.x&&this.skewSelf(e.x,0),e.y&&this.skewSelf(0,e.y)),!r||1===r.x&&1===r.y||this.scaleSelf(r.x,r.y),i&&(i.x||i.y)&&this.translateSelf(i.x,i.y),this}},{key:"decompose",value:function(){var t=arguments.length>0&&void 0!==arguments[0]?arguments[0]:0,n=arguments.length>1&&void 0!==arguments[1]?arguments[1]:0,e=this.m,r=e[0]*e[0]+e[1]*e[1],i=[[e[0],e[1]],[e[2],e[3]]],u=F(r);if(0===u)return{origin:{x:d(e[4]),y:d(e[5])},translate:{x:d(t),y:d(n)},scale:{x:0,y:0},skew:{x:0,y:0},rotate:0};i[0][0]/=u,i[0][1]/=u;var o=e[0]*e[3]-e[1]*e[2]<0;o&&(u=-u);var a=i[0][0]*i[1][0]+i[0][1]*i[1][1];i[1][0]-=i[0][0]*a,i[1][1]-=i[0][1]*a;var l=F(i[1][0]*i[1][0]+i[1][1]*i[1][1]);if(0===l)return{origin:{x:d(e[4]),y:d(e[5])},translate:{x:d(t),y:d(n)},scale:{x:d(u),y:0},skew:{x:0,y:0},rotate:0};i[1][0]/=l,i[1][1]/=l,a/=l;var s=0;return i[1][1]<0?(s=j(i[1][1])*R,i[0][1]<0&&(s=360-s)):s=M(i[0][1])*R,o&&(s=-s),a=E(a,F(i[0][0]*i[0][0]+i[0][1]*i[0][1]))*R,o&&(a=-a),{origin:{x:d(e[4]),y:d(e[5])},translate:{x:d(t),y:d(n)},scale:{x:d(u),y:d(l)},skew:{x:d(a),y:0},rotate:d(s)}}},{key:"clone",value:function(){var t=this.m;return new this.constructor(t[0],t[1],t[2],t[3],t[4],t[5])}},{key:"toString",value:function(){var t=arguments.length>0&&void 0!==arguments[0]?arguments[0]:" ";if(null===this.s){var n=this.m.map((function(t){return d(t)}));1===n[0]&&0===n[1]&&0===n[2]&&1===n[3]?this.s="translate("+n[4]+t+n[5]+")":this.s="matrix("+n.join(t)+")"}return this.s}}],[{key:"create",value:function(t){return t?Array.isArray(t)?f(this,v(t)):t instanceof this?t.clone():(new this).recomposeSelf(t.origin,t.rotate,t.skew,t.scale,t.translate):new this}}]),t}();function T(t,n,e){return t>=.5?e:n}function q(t,n,e){return 0===t||n===e?n:t*(e-n)+n}function B(t,n,e){var r=q(t,n,e);return r<=0?0:r}function L(t,n,e){var r=q(t,n,e);return r<=0?0:r>=1?1:r}function C(t,n,e){return 0===t?n:1===t?e:{x:q(t,n.x,e.x),y:q(t,n.y,e.y)}}function D(t,n,e){var r=function(t,n,e){return Math.round(q(t,n,e))}(t,n,e);return r<=0?0:r>=255?255:r}function z(t,n,e){return 0===t?n:1===t?e:{r:D(t,n.r,e.r),g:D(t,n.g,e.g),b:D(t,n.b,e.b),a:q(t,null==n.a?1:n.a,null==e.a?1:e.a)}}function V(t,n){for(var e=[],r=0;r<t;r++)e.push(n);return e}function G(t,n){if(--n<=0)return t;var e=(t=Object.assign([],t)).length;do{for(var r=0;r<e;r++)t.push(t[r])}while(--n>0);return t}var Y,$=function(){function t(n){r(this,t),this.list=n,this.length=n.length}return u(t,[{key:"setAttribute",value:function(t,n){for(var e=this.list,r=0;r<this.length;r++)e[r].setAttribute(t,n)}},{key:"removeAttribute",value:function(t){for(var n=this.list,e=0;e<this.length;e++)n[e].removeAttribute(t)}},{key:"style",value:function(t,n){for(var e=this.list,r=0;r<this.length;r++)e[r].style[t]=n}}]),t}(),U=/-./g,Q=function(t,n){return n.toUpperCase()};function H(t){return"function"==typeof t?t:T}function J(t){return t?"function"==typeof t?t:Array.isArray(t)?function(t){var n=arguments.length>1&&void 0!==arguments[1]?arguments[1]:b;if(!Array.isArray(t))return n;switch(t.length){case 1:return _(t[0])||n;case 2:return _(t[0],t[1])||n;case 4:return x(t[0],t[1],t[2],t[3])||n}return n}(t,null):function(t,n){var e=arguments.length>2&&void 0!==arguments[2]?arguments[2]:b;switch(t){case"linear":return b;case"steps":return _(n.steps||1,n.jump||0)||e;case"bezier":case"cubic-bezier":return x(n.x1||0,n.y1||0,n.x2||0,n.y2||0)||e}return e}(t.type,t.value,null):null}function Z(t,n,e){var r=arguments.length>3&&void 0!==arguments[3]&&arguments[3],i=n.length-1;if(t<=n[0].t)return r?[0,0,n[0].v]:n[0].v;if(t>=n[i].t)return r?[i,1,n[i].v]:n[i].v;var u,o=n[0],a=null;for(u=1;u<=i;u++){if(!(t>n[u].t)){a=n[u];break}o=n[u]}return null==a?r?[i,1,n[i].v]:n[i].v:o.t===a.t?r?[u,1,a.v]:a.v:(t=(t-o.t)/(a.t-o.t),o.e&&(t=o.e(t)),r?[u,t,e(t,o.v,a.v)]:e(t,o.v,a.v))}function K(t,n){var e=arguments.length>2&&void 0!==arguments[2]?arguments[2]:null;return t&&t.length?"function"!=typeof n?null:("function"!=typeof e&&(e=null),function(r){var i=Z(r,t,n);return null!=i&&e&&(i=e(i)),i}):null}function W(t,n){return t.t-n.t}function X(t,n,r,i,u){var o,a="@"===r[0],l="#"===r[0],s=Y[r],f=T;switch(a?(o=r.substr(1),r=o.replace(U,Q)):l&&(r=r.substr(1)),e(s)){case"function":if(f=s(i,u,Z,J,r,a,n,t),l)return f;break;case"string":f=K(i,H(s));break;case"object":if((f=K(i,H(s.i),s.f))&&"function"==typeof s.u)return s.u(n,f,r,a,t)}return f?function(t,n,e){if(arguments.length>3&&void 0!==arguments[3]&&arguments[3])return t instanceof $?function(r){return t.style(n,e(r))}:function(r){return t.style[n]=e(r)};if(Array.isArray(n)){var r=n.length;return function(i){var u=e(i);if(null==u)for(var o=0;o<r;o++)t[o].removeAttribute(n);else for(var a=0;a<r;a++)t[a].setAttribute(n,u)}}return function(r){var i=e(r);null==i?t.removeAttribute(n):t.setAttribute(n,i)}}(n,r,f,a):null}function tt(t,n,r,i){if(!i||"object"!==e(i))return null;var u=null,o=null;return Array.isArray(i)?o=function(t){if(!t||!t.length)return null;for(var n=0;n<t.length;n++)t[n].e&&(t[n].e=J(t[n].e));return t.sort(W)}(i):(o=i.keys,u=i.data||null),o?X(t,n,r,o,u):null}function nt(t,n,e){if(!e)return null;var r=[];for(var i in e)if(e.hasOwnProperty(i)){var u=tt(t,n,i,e[i]);u&&r.push(u)}return r.length?r:null}function et(t,n){if(!n.settings.duration||n.settings.duration<0)return null;var e,r,i,u,o,a=function(t,n){if(!n)return null;var e=[];if(Array.isArray(n))for(var r=n.length,i=0;i<r;i++){var u=n[i];if(2===u.length){var o=null;if("string"==typeof u[0])o=t.getElementById(u[0]);else if(Array.isArray(u[0])){o=[];for(var a=0;a<u[0].length;a++)if("string"==typeof u[0][a]){var l=t.getElementById(u[0][a]);l&&o.push(l)}o=o.length?1===o.length?o[0]:new $(o):null}if(o){var s=nt(t,o,u[1]);s&&(e=e.concat(s))}}}else for(var f in n)if(n.hasOwnProperty(f)){var c=t.getElementById(f);if(c){var h=nt(t,c,n[f]);h&&(e=e.concat(h))}}return e.length?e:null}(t,n.elements);return a?(e=a,r=n.settings,i=r.duration,u=e.length,o=null,function(t,n){var a=r.iterations||1/0,l=(r.alternate&&a%2==0)^r.direction>0?i:0,s=t%i,f=1+(t-s)/i;n*=r.direction,r.alternate&&f%2==0&&(n=-n);var c=!1;if(f>a)s=l,c=!0,-1===r.fill&&(s=r.direction>0?0:i);else if(n<0&&(s=i-s),s===o)return!1;o=s;for(var h=0;h<u;h++)e[h](s);return c}):null}function rt(t,n){if(Y=n,!t||!t.root||!Array.isArray(t.animations))return null;var e=function(t){for(var n=document.getElementsByTagName("svg"),e=0;e<n.length;e++)if(n[e].id===t.root&&!n[e].svgatorAnimation)return n[e].svgatorAnimation=!0,n[e];return null}(t);if(!e)return null;var r=t.animations.map((function(t){return et(e,t)})).filter((function(t){return!!t}));return r.length?{svg:e,animations:r,animationSettings:t.animationSettings,options:t.options||void 0}:null}function it(t){return+("0x"+(t.replace(/[^0-9a-fA-F]+/g,"")||27))}function ut(t,n,e){return!t||!e||n>t.length?t:t.substring(0,n)+ut(t.substring(n+1),e,e)}function ot(t){var n=arguments.length>1&&void 0!==arguments[1]?arguments[1]:27;return!t||t%n?t%n:ot(t/n,n)}function at(t,n,e){if(t&&t.length){var r=it(e),i=it(n),u=ot(r)+5,o=ut(t,ot(r,5),u);return o=o.replace(/\x7c$/g,"==").replace(/\x2f$/g,"="),o=function(t,n,e){var r=+("0x"+t.substring(0,4));t=t.substring(4);for(var i=n%r+e%27,u=[],o=0;o<t.length;o+=2)if("|"!==t[o]){var a=+("0x"+t[o]+t[o+1])-i;u.push(a)}else{var l=+("0x"+t.substring(o+1,o+1+4))-i;o+=3,u.push(l)}return String.fromCharCode.apply(String,u)}(o=(o=atob(o)).replace(/[\x41-\x5A]/g,""),i,r),o=JSON.parse(o)}}var lt=[{key:"alternate",def:!1},{key:"fill",def:1},{key:"iterations",def:0},{key:"direction",def:1},{key:"speed",def:1},{key:"fps",def:100}],st=function(){function t(n,e){var i=this,u=arguments.length>2&&void 0!==arguments[2]?arguments[2]:null;r(this,t),this._id=0,this._running=!1,this._rollingBack=!1,this._animations=n,this._settings=e,(!u||u<"2022-05-02")&&delete this._settings.speed,lt.forEach((function(t){i._settings[t.key]=i._settings[t.key]||t.def})),this.duration=e.duration,this.offset=e.offset||0,this.rollbackStartOffset=0}return u(t,[{key:"alternate",get:function(){return this._settings.alternate}},{key:"fill",get:function(){return this._settings.fill}},{key:"iterations",get:function(){return this._settings.iterations}},{key:"direction",get:function(){return this._settings.direction}},{key:"speed",get:function(){return this._settings.speed}},{key:"fps",get:function(){return this._settings.fps}},{key:"maxFiniteDuration",get:function(){return this.iterations>0?this.iterations*this.duration:this.duration}},{key:"_apply",value:function(t){for(var n=arguments.length>1&&void 0!==arguments[1]?arguments[1]:{},e=this._animations,r=e.length,i=0,u=0;u<r;u++)n[u]?i++:(n[u]=e[u](t,1),n[u]&&i++);return i}},{key:"_rollback",value:function(t){var n=this,e=1/0,r=null;this.rollbackStartOffset=t,this._rollingBack=!0,this._running=!0;this._id=window.requestAnimationFrame((function i(u){if(n._rollingBack){null==r&&(r=u);var o=Math.round(t-(u-r)*n.speed);if(o>n.duration&&e!==1/0){var a=!!n.alternate&&o/n.duration%2>1,l=o%n.duration;o=(l+=a?n.duration:0)||n.duration}var s=(n.fps?1e3/n.fps:0)*n.speed,f=Math.max(0,o);f<e-s&&(n.offset=f,e=f,n._apply(f));var c=n.iterations>0&&-1===n.fill&&o>=n.maxFiniteDuration;(o<=0||n.offset<o||c)&&n.stop(),n._id=window.requestAnimationFrame(i)}}))}},{key:"_start",value:function(){var t=this,n=arguments.length>0&&void 0!==arguments[0]?arguments[0]:0,e=-1/0,r=null,i={};this._running=!0;var u=function u(o){null==r&&(r=o);var a=Math.round((o-r)*t.speed+n),l=(t.fps?1e3/t.fps:0)*t.speed;if(a>e+l&&!t._rollingBack&&(t.offset=a,e=a,t._apply(a,i)===t._animations.length))return void t.pause(!0);t._id=window.requestAnimationFrame(u)};this._id=window.requestAnimationFrame(u)}},{key:"_pause",value:function(){this._id&&window.cancelAnimationFrame(this._id),this._running=!1}},{key:"play",value:function(){if(!this._running)return this._rollingBack?this._rollback(this.offset):this._start(this.offset)}},{key:"stop",value:function(){this._pause(),this.offset=0,this.rollbackStartOffset=0,this._rollingBack=!1,this._apply(0)}},{key:"reachedToEnd",value:function(){return this.iterations>0&&this.offset>=this.iterations*this.duration}},{key:"restart",value:function(){var t=arguments.length>0&&void 0!==arguments[0]&&arguments[0];this.stop(t),this.play(t)}},{key:"pause",value:function(){this._pause()}},{key:"reverse",value:function(){this.direction=-this.direction}}],[{key:"build",value:function(t,n){delete t.animationSettings,t.options=at(t.options,t.root,"5c7f360c"),t.animations.map((function(n){n.settings=at(n.s,t.root,"5c7f360c"),delete n.s,t.animationSettings||(t.animationSettings=n.settings)}));var e=t.version;if(!(t=rt(t,n)))return null;var r=t.options||{},i=new this(t.animations,t.animationSettings,e);return{el:t.svg,options:r,player:i}}},{key:"push",value:function(t){return this.build(t)}},{key:"init",value:function(){var t=this,n=window.__SVGATOR_PLAYER__&&window.__SVGATOR_PLAYER__["5c7f360c"];Array.isArray(n)&&n.splice(0).forEach((function(n){return t.build(n)}))}}]),t}();function ft(t){return d(t)+""}function ct(t){var n=arguments.length>1&&void 0!==arguments[1]?arguments[1]:" ";return t&&t.length?t.map(ft).join(n):""}function ht(t){if(!t)return"transparent";if(null==t.a||t.a>=1){var n=function(t){return 1===(t=parseInt(t).toString(16)).length?"0"+t:t},e=function(t){return t.charAt(0)===t.charAt(1)},r=n(t.r),i=n(t.g),u=n(t.b);return e(r)&&e(i)&&e(u)&&(r=r.charAt(0),i=i.charAt(0),u=u.charAt(0)),"#"+r+i+u}return"rgba("+t.r+","+t.g+","+t.b+","+t.a+")"}function vt(t){return t?"url(#"+t+")":"none"}!function(){for(var t=0,n=["ms","moz","webkit","o"],e=0;e<n.length&&!window.requestAnimationFrame;++e)window.requestAnimationFrame=window[n[e]+"RequestAnimationFrame"],window.cancelAnimationFrame=window[n[e]+"CancelAnimationFrame"]||window[n[e]+"CancelRequestAnimationFrame"];window.requestAnimationFrame||(window.requestAnimationFrame=function(n){var e=Date.now(),r=Math.max(0,16-(e-t)),i=window.setTimeout((function(){n(e+r)}),r);return t=e+r,i},window.cancelAnimationFrame=window.clearTimeout)}();var yt={f:null,i:function(t,n,e){return 0===t?n:1===t?e:{x:B(t,n.x,e.x),y:B(t,n.y,e.y)}},u:function(t,n){return function(e){var r=n(e);t.setAttribute("rx",ft(r.x)),t.setAttribute("ry",ft(r.y))}}},gt={f:null,i:function(t,n,e){return 0===t?n:1===t?e:{width:B(t,n.width,e.width),height:B(t,n.height,e.height)}},u:function(t,n){return function(e){var r=n(e);t.setAttribute("width",ft(r.width)),t.setAttribute("height",ft(r.height))}}};Object.freeze({M:2,L:2,Z:0,H:1,V:1,C:6,Q:4,T:2,S:4,A:7});var dt={},pt=null;function mt(t){var n=function(){if(pt)return pt;if("object"!==("undefined"==typeof document?"undefined":e(document))||!document.createElementNS)return{};var t=document.createElementNS("http://www.w3.org/2000/svg","svg");return t&&t.style?(t.style.position="absolute",t.style.opacity="0.01",t.style.zIndex="-9999",t.style.left="-9999px",t.style.width="1px",t.style.height="1px",pt={svg:t}):{}}().svg;if(!n)return function(t){return null};var r=document.createElementNS(n.namespaceURI,"path");r.setAttributeNS(null,"d",t),r.setAttributeNS(null,"fill","none"),r.setAttributeNS(null,"stroke","none"),n.appendChild(r);var i=r.getTotalLength();return function(t){var n=r.getPointAtLength(i*t);return{x:n.x,y:n.y}}}function bt(t){return dt[t]?dt[t]:dt[t]=mt(t)}function wt(t,n,e,r){if(!t||!r)return!1;var i=["M",t.x,t.y];if(n&&e&&(i.push("C"),i.push(n.x),i.push(n.y),i.push(e.x),i.push(e.y)),n?!e:e){var u=n||e;i.push("Q"),i.push(u.x),i.push(u.y)}return n||e||i.push("L"),i.push(r.x),i.push(r.y),i.join(" ")}function xt(t,n,e,r){var i=arguments.length>4&&void 0!==arguments[4]?arguments[4]:1,u=wt(t,n,e,r),o=bt(u);try{return o(i)}catch(t){return null}}function At(t,n,e){return t+(n-t)*e}function kt(t,n,e){var r=arguments.length>3&&void 0!==arguments[3]&&arguments[3],i={x:At(t.x,n.x,e),y:At(t.y,n.y,e)};return r&&(i.a=_t(t,n)),i}function _t(t,n){return Math.atan2(n.y-t.y,n.x-t.x)}function St(t,n,e,r){var i=1-r;return i*i*t+2*i*r*n+r*r*e}function Ot(t,n,e,r){return 2*(1-r)*(n-t)+2*r*(e-n)}function jt(t,n,e,r){var i=arguments.length>4&&void 0!==arguments[4]&&arguments[4],u=xt(t,n,null,e,r);return u||(u={x:St(t.x,n.x,e.x,r),y:St(t.y,n.y,e.y,r)}),i&&(u.a=Mt(t,n,e,r)),u}function Mt(t,n,e,r){return Math.atan2(Ot(t.y,n.y,e.y,r),Ot(t.x,n.x,e.x,r))}function Pt(t,n,e,r,i){var u=i*i;return i*u*(r-t+3*(n-e))+3*u*(t+e-2*n)+3*i*(n-t)+t}function Et(t,n,e,r,i){var u=1-i;return 3*(u*u*(n-t)+2*u*i*(e-n)+i*i*(r-e))}function It(t,n,e,r,i){var u=arguments.length>5&&void 0!==arguments[5]&&arguments[5],o=xt(t,n,e,r,i);return o||(o={x:Pt(t.x,n.x,e.x,r.x,i),y:Pt(t.y,n.y,e.y,r.y,i)}),u&&(o.a=Rt(t,n,e,r,i)),o}function Rt(t,n,e,r,i){return Math.atan2(Et(t.y,n.y,e.y,r.y,i),Et(t.x,n.x,e.x,r.x,i))}function Ft(t,n,e){var r=arguments.length>3&&void 0!==arguments[3]&&arguments[3];if(Tt(n)){if(qt(e))return jt(n,e.start,e,t,r)}else if(Tt(e)){if(Bt(n))return jt(n,n.end,e,t,r)}else{if(Bt(n))return qt(e)?It(n,n.end,e.start,e,t,r):jt(n,n.end,e,t,r);if(qt(e))return jt(n,e.start,e,t,r)}return kt(n,e,t,r)}function Nt(t,n,e){var r=Ft(t,n,e,!0);return r.a=function(t){return arguments.length>1&&void 0!==arguments[1]&&arguments[1]?t+Math.PI:t}(r.a)/m,r}function Tt(t){return!t.type||"corner"===t.type}function qt(t){return null!=t.start&&!Tt(t)}function Bt(t){return null!=t.end&&!Tt(t)}var Lt=new N;var Ct={f:ft,i:q},Dt={f:ft,i:L};function zt(t,n,e){return t.map((function(t){return function(t,n,e){var r=t.v;if(!r||"g"!==r.t||r.s||!r.v||!r.r)return t;var i=e.getElementById(r.r),u=i&&i.querySelectorAll("stop")||[];return r.s=r.v.map((function(t,n){var e=u[n]&&u[n].getAttribute("offset");return{c:t,o:e=d(parseInt(e)/100)}})),delete r.v,t}(t,0,e)}))}var Vt={gt:"gradientTransform",c:{x:"cx",y:"cy"},rd:"r",f:{x:"x1",y:"y1"},to:{x:"x2",y:"y2"}};function Gt(t,n,r,i,u,o,a,l){return zt(t,0,l),n=function(t,n,e){for(var r,i,u,o=t.length-1,a={},l=0;l<=o;l++)(r=t[l]).e&&(r.e=n(r.e)),r.v&&"g"===(i=r.v).t&&i.r&&(u=e.getElementById(i.r))&&(a[i.r]={e:u,s:u.querySelectorAll("stop")});return a}(t,i,l),function(i){var u=r(i,t,Yt);if(!u)return"none";if("c"===u.t)return ht(u.v);if("g"===u.t){if(!n[u.r])return vt(u.r);var o=n[u.r];return function(t,n){for(var e=t.s,r=e.length;r<n.length;r++){var i=e[e.length-1].cloneNode();i.id=Qt(i.id),t.e.appendChild(i),e=t.s=t.e.querySelectorAll("stop")}for(var u=0,o=e.length,a=n.length-1;u<o;u++)e[u].setAttribute("stop-color",ht(n[Math.min(u,a)].c)),e[u].setAttribute("offset",n[Math.min(u,a)].o)}(o,u.s),Object.keys(Vt).forEach((function(t){if(void 0!==u[t])if("object"!==e(Vt[t])){var n,r="gt"===t?(n=u[t],Array.isArray(n)?"matrix("+n.join(" ")+")":""):u[t],i=Vt[t];o.e.setAttribute(i,r)}else Object.keys(Vt[t]).forEach((function(n){if(void 0!==u[t][n]){var e=u[t][n],r=Vt[t][n];o.e.setAttribute(r,e)}}))})),vt(u.r)}return"none"}}function Yt(t,e,r){if(0===t)return e;if(1===t)return r;if(e&&r){var i=e.t;if(i===r.t)switch(e.t){case"c":return{t:i,v:z(t,e.v,r.v)};case"g":if(e.r===r.r){var u={t:i,s:$t(t,e.s,r.s),r:e.r};return e.gt&&r.gt&&(u.gt=function(t,n,e){var r=n.length;if(r!==e.length)return T(t,n,e);for(var i=new Array(r),u=0;u<r;u++)i[u]=q(t,n[u],e[u]);return i}(t,e.gt,r.gt)),e.c?(u.c=C(t,e.c,r.c),u.rd=B(t,e.rd,r.rd)):e.f&&(u.f=C(t,e.f,r.f),u.to=C(t,e.to,r.to)),u}}if("c"===e.t&&"g"===r.t||"c"===r.t&&"g"===e.t){var o="c"===e.t?e:r,a="g"===e.t?n({},e):n({},r),l=a.s.map((function(t){return{c:o.v,o:t.o}}));return a.s="c"===e.t?$t(t,l,a.s):$t(t,a.s,l),a}}return T(t,e,r)}function $t(t,n,e){if(n.length===e.length)return n.map((function(n,r){return Ut(t,n,e[r])}));for(var r=Math.max(n.length,e.length),i=[],u=0;u<r;u++){var o=Ut(t,n[Math.min(u,n.length-1)],e[Math.min(u,e.length-1)]);i.push(o)}return i}function Ut(t,n,e){return{o:L(t,n.o,e.o||0),c:z(t,n.c,e.c||{})}}function Qt(t){return t.replace(/-fill-([0-9]+)$/,(function(t,n){return"-fill-"+(+n+1)}))}var Ht={fill:Gt,"fill-opacity":Dt,stroke:Gt,"stroke-opacity":Dt,"stroke-width":Ct,"stroke-dashoffset":{f:ft,i:q},"stroke-dasharray":{f:function(t){var n=arguments.length>1&&void 0!==arguments[1]?arguments[1]:" ";return t&&t.length>0&&(t=t.map((function(t){return d(t,4)}))),ct(t,n)},i:function(t,n,e){var r,i,u,o=n.length,a=e.length;if(o!==a)if(0===o)n=V(o=a,0);else if(0===a)a=o,e=V(o,0);else{var l=(u=(r=o)*(i=a)/function(t,n){for(var e;n;)e=n,n=t%n,t=e;return t||1}(r,i))<0?-u:u;n=G(n,Math.floor(l/o)),e=G(e,Math.floor(l/a)),o=a=l}for(var s=[],f=0;f<o;f++)s.push(d(B(t,n[f],e[f])));return s}},opacity:Dt,transform:function(t,n,r,i){if(!(t=function(t,n){if(!t||"object"!==e(t))return null;var r=!1;for(var i in t)t.hasOwnProperty(i)&&(t[i]&&t[i].length?(t[i].forEach((function(t){t.e&&(t.e=n(t.e))})),r=!0):delete t[i]);return r?t:null}(t,i)))return null;var u=function(e,i,u){var o=arguments.length>3&&void 0!==arguments[3]?arguments[3]:null;return t[e]?r(i,t[e],u):n&&n[e]?n[e]:o};return n&&n.a&&t.o?function(n){var e=r(n,t.o,Nt);return Lt.recomposeSelf(e,u("r",n,q,0)+e.a,u("k",n,C),u("s",n,C),u("t",n,C)).toString()}:function(t){return Lt.recomposeSelf(u("o",t,Ft,null),u("r",t,q,0),u("k",t,C),u("s",t,C),u("t",t,C)).toString()}},r:Ct,"#size":gt,"#radius":yt,_:function(t,n){if(Array.isArray(t))for(var e=0;e<t.length;e++)this[t[e]]=n;else this[t]=n}},Jt=function(t){!function(t,n){if("function"!=typeof n&&null!==n)throw new TypeError("Super expression must either be null or a function");t.prototype=Object.create(n&&n.prototype,{constructor:{value:t,writable:!0,configurable:!0}}),n&&l(t,n)}(o,t);var n,e,i=(n=o,e=s(),function(){var t,r=a(n);if(e){var i=a(this).constructor;t=Reflect.construct(r,arguments,i)}else t=r.apply(this,arguments);return c(this,t)});function o(){return r(this,o),i.apply(this,arguments)}return u(o,null,[{key:"build",value:function(t){var n=h(a(o),"build",this).call(this,t,Ht);if(!n)return null;n.el,n.options,function(t,n,e){t.play()}(n.player)}}]),o}(st);return Jt.init(),Jt}));
(function(s,i,o,w,a,b){w[o]=w[o]||{};w[o][s]=w[o][s]||[];w[o][s].push(i);})('5c7f360c',{"root":"ea3oVUQ8rt71","version":"2022-05-04","animations":[{"elements":{"ea3oVUQ8rt74":{"transform":{"data":{"t":{"x":-55.091597,"y":-28.084574}},"keys":{"o":[{"t":0,"v":{"x":226.851837,"y":-53.927745,"type":"cusp"},"e":[0.42,0,0.58,1]},{"t":1400,"v":{"x":-51.874396,"y":237.01121,"type":"cusp","start":{"x":155.302417,"y":146.196573},"end":{"x":91.106338,"y":240.03462}},"e":[0.42,0,0.58,1]},{"t":3300,"v":{"x":317.476001,"y":140.114821,"type":"cusp","start":{"x":278.51599,"y":179.688941},"end":{"x":257.935079,"y":254.622561}},"e":[0.42,0,0.58,1]},{"t":5400,"v":{"x":-17.528991,"y":400.749988,"type":"cusp","start":{"x":127.895064,"y":364.292104},"end":{"x":133.805443,"y":408.030482}},"e":[0.42,0,0.58,1]},{"t":7700,"v":{"x":436.515827,"y":285.913614,"type":"cusp","start":{"x":369.543831,"y":336.464841},"end":{"x":363.782733,"y":423.213959}},"e":[0.42,0,0.58,1]},{"t":10000,"v":{"x":93.329526,"y":539.446015,"type":"cusp","start":{"x":116.230456,"y":529.249733},"end":{"x":70.428596,"y":549.642297}},"e":[0.42,0,0.58,1]}],"r":[{"t":0,"v":-54.290754},{"t":1400,"v":33.578332,"e":[0.42,0,0.58,1]},{"t":3300,"v":-45.538731,"e":[0.42,0,0.58,1]},{"t":5400,"v":32.147567,"e":[0.42,0,0.58,1]},{"t":7700,"v":-35.083486,"e":[0.42,0,0.58,1]},{"t":10000,"v":3.914753,"e":[0.42,0,0.58,1]}]}}}},"s":"MWDA1NGI4NWZhMWIyYWOY5ZWIxYTZRYWNhYjVEmNzc2ZTZkNmQ2ZFg2YZDY5NWZhMWE2YWZhMSmEwRGIxYTZhY2FiNWKZENzc2ZTY5NWZhNmIYxYTJhZjllYjFhNkdhHY2FiYjA1Zjc3NmU2OHTVmYTNhNmE5YTk1ZjLc3NmVKNjk1ZjllYTlNiMWEyYWZhYjllYjFhAMjVmNzdhMzllYTliMBGEySjY5NWZiMGFkYTJJhMmExTjVmNzc2ZWJVh"}],"options":"MJDAxMDg4TTJmRTgwODWFUNmU3ZjgxMmY0NzJDmNzk3YzZlNzEyZjhhX"},'__SVGATOR_PLAYER__',window)]]></script></svg>