<?xml version="1.0" encoding="UTF-8" standalone="no"?>
<svg
   version="1.1"
   id="Layer_1"
   x="0px"
   y="0px"
   viewBox="99.0848 24.1608 1761.2183 1761.2183"
   enable-background="new 99.0848 24.1608 1361.9153 1871.4348"
   xml:space="preserve"
   inkscape:version="1.2 (56b05e47e7, 2022-06-09, custom)"
   sodipodi:docname="You shall not pass traffic sign.svg"
   width="1761.2183"
   height="1761.2183"
   inkscape:export-filename="/media/sdb1/_GRAFIKA/2017_Gandalf_sign/you_shall_not_pass_sign.svg.png"
   inkscape:export-xdpi="89.634773"
   inkscape:export-ydpi="89.634773"
   xmlns:inkscape="http://www.inkscape.org/namespaces/inkscape"
   xmlns:sodipodi="http://sodipodi.sourceforge.net/DTD/sodipodi-0.dtd"
   xmlns="http://www.w3.org/2000/svg"
   xmlns:svg="http://www.w3.org/2000/svg"
   xmlns:rdf="http://www.w3.org/1999/02/22-rdf-syntax-ns#"
   xmlns:cc="http://creativecommons.org/ns#"
   xmlns:dc="http://purl.org/dc/elements/1.1/"><title
     id="title9840">You shall not pass traffic sign</title><metadata
     id="metadata13"><rdf:RDF><cc:Work
         rdf:about=""><dc:format>image/svg+xml</dc:format><dc:type
           rdf:resource="http://purl.org/dc/dcmitype/StillImage" /><dc:title>You shall not pass traffic sign</dc:title><dc:creator><cc:Agent><dc:title>Jan Helebrant</dc:title></cc:Agent></dc:creator><cc:license
           rdf:resource="http://creativecommons.org/publicdomain/zero/1.0/" /><dc:subject><rdf:Bag><rdf:li>warlock</rdf:li><rdf:li>wizard</rdf:li><rdf:li>magician</rdf:li><rdf:li>staff</rdf:li><rdf:li>sword</rdf:li><rdf:li>traffic</rdf:li><rdf:li>sign</rdf:li><rdf:li>warning</rdf:li></rdf:Bag></dc:subject></cc:Work><cc:License
         rdf:about="http://creativecommons.org/publicdomain/zero/1.0/"><cc:permits
           rdf:resource="http://creativecommons.org/ns#Reproduction" /><cc:permits
           rdf:resource="http://creativecommons.org/ns#Distribution" /><cc:permits
           rdf:resource="http://creativecommons.org/ns#DerivativeWorks" /></cc:License></rdf:RDF></metadata><defs
     id="defs11" /><sodipodi:namedview
     pagecolor="#ffffff"
     bordercolor="#666666"
     borderopacity="1"
     objecttolerance="10"
     gridtolerance="10"
     guidetolerance="10"
     inkscape:pageopacity="0"
     inkscape:pageshadow="2"
     inkscape:window-width="1920"
     inkscape:window-height="941"
     id="namedview9"
     showgrid="false"
     inkscape:zoom="0.17203065"
     inkscape:cx="819.62138"
     inkscape:cy="810.902"
     inkscape:window-x="980"
     inkscape:window-y="34"
     inkscape:window-maximized="1"
     inkscape:current-layer="g9842"
     showguides="false"
     fit-margin-top="5"
     fit-margin-right="5"
     fit-margin-bottom="5"
     fit-margin-left="5"
     inkscape:showpageshadow="2"
     inkscape:pagecheckerboard="0"
     inkscape:deskcolor="#d1d1d1" /><g
     id="g9806"
     transform="matrix(0.4505133,0,0,0.4505133,628.27443,391.95113)"><g
       id="g9842"><g
         id="g9899"
         style="paint-order:stroke fill markers"
         inkscape:export-filename="../d31f5a6c/dont_pass.svg"
         inkscape:export-xdpi="89.634773"
         inkscape:export-ydpi="89.634773"><g
           id="layer1-9"
           inkscape:label="Layer 1"
           transform="matrix(4.725271,0,0,4.725271,-4927.3526,-2630.4058)"
           style="paint-order:stroke fill markers"><g
             id="g3757"
             style="stroke:#000000;paint-order:stroke fill markers"
             transform="matrix(2.1442836,-2.1442836,2.1442836,2.1442836,-441.88098,292.88516)"><rect
               id="rect2985"
               style="color:#000000;fill:#ffd033;fill-opacity:1;stroke:none;stroke-width:0.25;paint-order:stroke fill markers"
               ry="12.121"
               height="200"
               width="200"
               y="402.35999"
               x="167" /><rect
               id="rect3755"
               style="color:#000000;fill:#ffd033;fill-opacity:1;stroke:#000000;stroke-width:3.09812;stroke-dasharray:none;paint-order:stroke fill markers"
               ry="10.909"
               height="180"
               width="180"
               y="412.35999"
               x="177" /></g></g><g
           id="g9546"
           transform="matrix(1.0647061,0,0,1.0647061,-49.063904,283.16558)"
           style="paint-order:stroke fill markers"><g
             transform="matrix(1.1173606,0,0,1.1173606,-155.6046,-93.117537)"
             id="g9689"
             style="paint-order:stroke fill markers"><path
               sodipodi:nodetypes="ccsccsccsccccscccccccccc"
               inkscape:connector-curvature="0"
               id="path2985"
               d="m 692.36808,182.21656 c 20.7369,-2.45739 43.47563,3.98777 65.18087,8.79441 30.96551,6.85906 50.81436,37.67599 75.18261,62.84828 17.91628,18.50765 41.32732,29.78222 56.68338,49.13645 0.51106,0.63612 1.01432,1.27972 1.5074,1.93383 14.73667,19.54821 22.32165,31.16131 35.19252,60.99504 5.22113,12.10201 9.84923,29.32408 13.40225,44.22023 50.22509,3.59112 115.57919,17.29844 131.89269,37.59345 4.6214,5.62634 7.4679,11.77071 8.2671,18.36442 5.0589,41.73821 -36.2499,97.50171 -138.98533,103.11095 -93.72246,5.11812 -264.61393,-12.18503 -290.40086,-45.64593 -3.32897,-4.17175 -4.99415,-8.59786 -4.69864,-13.26924 3.244,-51.35012 78.41446,-73.07293 137.46226,-85.93206 0.17184,-1.13503 0.34067,-2.27024 0.51524,-3.40368 2.74233,-17.80825 22.87611,-38.50617 19.54988,-50.10204 -5.93068,-20.67642 -20.39191,-43.57695 -33.91439,-60.89458 -9.20271,-11.74095 -17.93748,-20.86613 -23.20778,-24.89767 -17.58924,-13.45438 -46.81787,-42.95094 -56.61047,-55.8074 -34.08103,18.74009 -1.6508,165.85869 -1.6508,165.85869 0,0 -0.20366,-0.48299 -0.45229,-1.07967 0.0422,0.19642 0.14786,0.69351 0.14786,0.69351 0,0 -48.48742,-113.43655 -36.08328,-188.81908 11.82137,-15.37044 25.88702,-21.9046 41.0195,-23.69788 z"
               style="fill:#000000;stroke:#000000;stroke-width:0.936016;stroke-linecap:round;stroke-linejoin:round;paint-order:stroke fill markers" /><path
               sodipodi:nodetypes="ccccscccccccccccccccccccccccccccccccccccccccccssccccc"
               inkscape:connector-curvature="0"
               id="path7716"
               d="m 780.5594,491.35027 c -19.44377,37.02176 -18.79763,82.45908 13.59766,144.91797 40.26975,87.7085 -77.99115,75.24808 -114.64063,123.58008 -33.12174,34.132 -140.18491,12.102 -172.96801,-30.1997 -8.21698,-0.5983 -16.85563,31.87813 -25.68387,30.16085 C 418.87491,747.75118 338.23494,657.01538 309.85929,625.031 309.2333,603.39649 297.86633,584.04274 293.94803,562.27274 277.38039,532.3113 264.06522,543.1458 268.75076,584.05399 c -11.29585,33.91941 36.20139,68.01765 -9.96112,44.33883 19.77467,-44.49093 -21.11365,-25.75881 -25.3418,-18.79883 -13.91287,-11.44202 -16.37797,-22.24087 -12.32617,-30.75391 2.18306,-31.2413 -19.97771,-37.19709 -26.36133,-16.66992 -5.0216,16.7853 -10.36212,37.79265 -4.88476,38.94141 6.61964,20.9897 -3.08032,50.53157 31.87695,37.20117 24.78333,28.3622 49.14327,72.77365 85.16211,75.31055 40.67144,55.3303 122.80343,115.43225 100.68651,186.94525 -3.07896,102.35526 -30.60082,81.86293 -2.64471,181.85926 5.05551,72.2931 107.51784,97.7093 132.03126,29.2345 15.76771,-57.4103 140.75091,-78.4743 143.39965,-81.5308 -1.5056,71.2842 -42.28066,226.2831 -36.13264,290.9258 -22.35864,74.8908 -60.48495,145.7834 -108.12304,200.17 -6.4802,63.0102 52.83792,145.4838 -18.20313,180.2207 -29.73819,19.3263 -12.94786,78.0757 -57.49414,71.3007 -8.82357,32.3653 -50.26122,61.0558 9.63281,62.3399 38.70698,19.6751 137.26337,-55.2981 175.03125,-0.3301 89.84042,-0.013 130.37429,-19.2658 223.63868,-33.4434 88.52802,14.1776 127.00335,33.4305 212.28096,33.4434 35.8498,-54.968 129.3993,20.0052 166.1407,0.3301 56.8523,-1.2841 17.5199,-29.9746 9.1445,-62.3399 -42.284,6.775 -26.3463,-51.9744 -54.5742,-71.3007 -67.4333,-34.7369 -11.1282,-117.2105 -17.2793,-180.2207 -45.2188,-54.3866 -81.4097,-125.2792 -102.6329,-200.17 5.8358,-64.6427 -44.1585,-259.2907 -45.5876,-330.57484 2.5142,3.0565 45.8805,55.83974 60.8474,113.25004 23.2685,68.4748 191.8957,23.2341 196.6945,-49.059 26.5363,-99.99636 19.6317,-20.0304 16.7091,-122.38573 -20.9937,-71.513 68.1179,-103.86062 106.7238,-159.19092 34.1896,-2.5369 36.9869,-18.21134 60.5117,-46.57354 33.1819,13.3304 23.9743,-16.21147 30.2578,-37.20117 5.1992,-1.14876 0.1317,-22.15611 -4.6348,-38.94141 -6.0595,-20.52717 -45.321,-22.28131 -43.2488,8.95999 3.846,8.51304 0.1052,9.49925 -13.1011,20.94127 -4.0134,-6.95998 -2.8736,-36.90654 15.8968,7.58439 -43.8182,23.67882 -31.7638,-1.46317 -27.4318,-40.83432 12.1575,-37.40368 2.3218,-41.93005 -23.918,-21.78125 -3.7193,21.77 -31.9739,27.48106 -32.5681,49.11557 -0.2064,38.43397 -50.7449,93.05561 -107.8871,103.99412 -6.4753,1.23953 -14.9923,-32.32929 -21.5169,-31.30681 -38.6191,6.05219 -77.8772,19.44835 -101.4,21.25274 -27.1533,10.58247 -68.376,25.67389 -99.8155,-8.45811 -34.7881,-48.332 -147.0448,-35.87158 -108.82015,-123.58008 37.37601,-55.44986 34.25938,-103.6908 12.90625,-144.91797 -76.43292,-11.16455 -95.46194,-5.91086 -171.875,0 z"
               style="display:inline;fill:#000000;stroke-width:1.00008;stroke-dasharray:none;paint-order:stroke fill markers"
               inkscape:label="path7716" /><path
               sodipodi:nodetypes="ccccssccccccscccccccsccccccc"
               style="fill:#ffd033;fill-opacity:1;stroke:#000000;stroke-width:37.3164;stroke-linecap:round;stroke-linejoin:round;stroke-miterlimit:4;stroke-dasharray:none;paint-order:markers stroke fill"
               inkscape:connector-curvature="0"
               id="path3642-7"
               d="m 764.47373,564.32739 c -16.53649,31.87835 -36.04868,43.85131 -138.34926,112.39127 74.26874,-40.00271 101.66419,-61.11843 137.13983,-89.74281 -35.12045,41.18914 -69.59121,65.876 -105.29168,123.60066 -3.35435,18.48659 60.68106,-21.93327 62.55134,-13.05241 10.9922,52.19544 7.77874,11.95714 34.01828,6.66668 38.1438,-7.69062 -2.93811,99.41413 21.33818,266.49731 8.36549,45.63691 27.75391,88.68031 41.64122,133.03481 1.42375,-65.7672 5.63995,-24.1283 7.0629,-89.8976 18.22183,88.6253 45.50562,139.6038 79.94879,193.1312 3.98998,-23.8034 3.90046,-161.4424 4.66959,-201.3273 17.64224,38.2841 17.75686,69.7701 42.95017,95.8452 -0.0103,-81.263 -38.99143,-145.92282 -36.20176,-227.0298 1.4888,-43.27721 14.99388,-100.01392 15.12351,-143.11453 0.11139,-36.90089 15.7438,-77.80688 26.44293,-107.04768 -1.53243,-17.06381 13.30217,-40.9022 12.37928,-58.02434 -1.18381,0.0974 -2.36328,0.23002 -3.54676,0.32696 l -33.49249,83.64534 c -2.23068,25.07724 -20.69134,48.89098 -43.43399,56.66444 -19.62519,6.70941 -60.43411,-14.24389 -60.43411,-14.24389 -33.25846,-7.84675 -25.68634,-40.2239 -34.71806,-74.84242 -4.30339,-16.49488 -8.24821,-22.8842 -1.62496,-43.35518 2.67831,0.87976 5.36383,1.68153 8.04923,2.47747 -12.24198,-3.64784 -24.19269,-8.13454 -36.23688,-12.58757 z m 36.23686,12.58756 c 1.91899,0.56881 5.86083,-20.92678 7.79287,-20.40462 -1.93015,-0.52464 -5.87546,20.976 -7.79287,20.40462 z"
               inkscape:label="path3642-7" /><path
               id="path3922"
               sodipodi:nodetypes="cscsssccsscssccsscssccscssc"
               style="fill:#000000;paint-order:stroke fill markers"
               inkscape:connector-curvature="0"
               d="m 1290.5866,-127.13606 c 0,0 13.935,45.532997 2.7649,53.016677 -11.1703,7.48294 -27.4269,-19.87193 -27.4269,-19.87193 0,0 -12.4765,34.93742 -6.0835,42.31957 6.3929,7.38242 19.6936,2.36025 21.1505,11.96924 1.4562,9.6091 -4.3015,52.78274 -3.4691,58.27428 0.8335,5.49054 20.9426,10.59645 20.9426,10.59645 l 8.7568,5.58276 c 0,0 -19.4017,28.55073 -16.4382,36.501363 2.9632,7.95164 11.4372,29.06109 18.7124,30.66716 7.2747,1.60716 18.6033,6.76309 18.6033,6.76309 0,0 -12.9837,30.30079 -11.9429,37.16454 0.4867,3.20123 64.8257,300.16225 125.5796,617.41708 69.4933,362.88418 136.5413,751.96098 136.5413,751.96098 l 38.5551,-0.7703 c 0,0 -38.8597,-188.554 -42.4523,-207.8519 -34.6452,-186.1007 -74.3174,-435.33326 -85.6151,-503.05676 -5.5011,-32.97478 -69.0585,-362.95643 -69.0585,-362.95643 0,0 -61.9735,-277.68293 -61.4594,-290.68716 0.5117,-13.02092 8.2461,-78.96376 8.281,-86.930243 0.035,-7.9665 -25.132,-26.38981 -25.132,-26.38981 l -6.3563,-0.93517 c 0,0 15.7896,-43.4199095 13.7294,-57.0079 -2.0604,-13.58904 -14.8853,-24.39614 -14.8853,-24.39614 0,0 21.4034,-80.172287 20.2617,-95.904207 -1.1422,-15.73182 -19.3713,-37.58407 -30.1708,-26.83517 -10.8003,10.74829 -33.3906,41.355 -33.3906,41.355 z" /><g
               transform="rotate(-159.32023,-202.09024,334.56934)"
               id="layer1"
               inkscape:label="Layer 1"
               style="paint-order:stroke fill markers"><path
                 inkscape:connector-curvature="0"
                 id="path9692-1"
                 d="m -590.11838,1077.1781 -0.007,-0.049 c 6.29604,-13.4211 13.86876,-27.0257 17.27381,-40.0333 L -676.25718,291.89227 c 29.47728,0.54468 60.67697,8.72706 95.15065,24.51229 4.46103,2.71501 12.83768,-31.65725 7.05884,-33.29955 -36.07305,-11.0823 -71.45354,-15.83901 -105.78541,-14.3837 2.09733,-0.17824 4.19145,-0.35762 6.33545,-0.50466 -0.002,-0.007 -0.003,-0.0144 -0.005,-0.021 0.13316,-0.009 0.26062,-0.0228 0.39394,-0.032 l 0.002,-2.8e-4 c 0.08,-10e-4 0.14507,-0.0482 0.19658,-0.13036 0.81026,-1.12811 -1.17901,-9.30308 -4.36069,-10.08873 0,0 -0.002,2.8e-4 -0.002,2.8e-4 -0.11254,-0.0276 -0.22558,-0.0458 -0.34104,-0.0544 0,0 -0.002,2.9e-4 -0.002,2.9e-4 -0.1159,-0.009 -0.23165,-0.008 -0.35051,0.004 -0.1305,0.0136 -0.25798,0.0298 -0.38843,0.043 l -30.21461,-118.73693 c 0.19531,-0.0392 0.37531,-0.0705 0.57221,-0.11044 0.15408,-0.0319 0.29993,-0.0964 0.43365,-0.18357 0.2704,-0.17709 0.49975,-0.45979 0.69149,-0.81571 0,0 0.002,-0.002 0.002,-0.002 0.0915,-0.17011 0.17425,-0.35573 0.2489,-0.55591 0.96761,-2.53027 0.66598,-7.19003 -0.36915,-6.99568 -0.0954,0.0247 -0.1816,0.0422 -0.27659,0.0667 a 38.392647,38.392647 0 0 0 13.6009,-35.078058 38.392647,38.392647 0 0 0 -43.49282,-32.502069 38.392647,38.392647 0 0 0 -32.50014,43.492567 38.392647,38.392647 0 0 0 22.80367,29.72884 c -0.0288,0.002 -0.0552,0.004 -0.084,0.006 -0.0299,0.003 -0.0504,0.0286 -0.0774,0.0386 -0.10557,0.007 -0.20262,0.0153 -0.30857,0.0219 0.0218,0.0797 0.0329,0.16615 0.0526,0.24703 -0.4014,0.87038 -0.003,3.48033 0.83086,5.43329 0.26575,1.44871 0.70713,2.45532 1.82387,2.34009 0.0783,-0.009 0.14322,-0.0162 0.22128,-0.0254 l 6.69386,122.12603 c -0.0638,0.0101 -0.12507,0.0209 -0.18892,0.0311 -1.40483,0.23816 -1.79227,1.43844 -1.76409,3.02461 -0.61299,3.00333 -0.0171,7.18491 0.97516,7.89237 -0.002,0.0525 0.004,0.1102 0.001,0.16158 0.081,-0.0156 0.16111,-0.0301 0.24204,-0.046 0.0186,0.002 0.0382,-0.001 0.0569,-0.002 -31.97671,8.35458 -62.77382,22.47989 -92.06052,42.29255 -3.95747,2.77759 13.16049,34.36767 18.12631,29.6974 27.76544,-24.17248 54.76465,-40.70558 82.51309,-49.66598 L -617.75271,1043.57 c 7.90151,12.9479 17.76243,23.2845 27.63205,33.6071 0,0 0.002,-3e-4 0.002,-3e-4 z"
                 style="fill:#000000;paint-order:stroke fill markers" /></g></g></g></g><g
         transform="matrix(4.6054698,2.0448287,-4.5817284,2.0554244,-1128.431,-38.436815)"
         inkscape:label="Layer 1"
         id="g9876"><g
           transform="matrix(2.1442836,-2.1442836,2.1442836,2.1442836,-441.88098,292.88516)"
           style="stroke:#000000"
           id="g9878" /></g></g></g></svg>
