<?xml version="1.0" encoding="UTF-8" standalone="no"?>
<svg
   version="1.1"
   x="0px"
   y="0px"
   viewBox="0 0 100 100"
   enable-background="new 0 0 100 100"
   xml:space="preserve"
   id="svg1718"
   sodipodi:docname="logo.svg"
   inkscape:version="1.2 (56b05e47e7, 2022-06-09, custom)"
   xmlns:inkscape="http://www.inkscape.org/namespaces/inkscape"
   xmlns:sodipodi="http://sodipodi.sourceforge.net/DTD/sodipodi-0.dtd"
   xmlns="http://www.w3.org/2000/svg"
   xmlns:svg="http://www.w3.org/2000/svg"><defs
     id="defs1722"><filter
       id="mask-powermask-path-effect5871_inverse"
       inkscape:label="filtermask-powermask-path-effect5871"
       style="color-interpolation-filters:sRGB"
       height="100"
       width="100"
       x="-50"
       y="-50"><feColorMatrix
         id="mask-powermask-path-effect5871_primitive1"
         values="1"
         type="saturate"
         result="fbSourceGraphic" /><feColorMatrix
         id="mask-powermask-path-effect5871_primitive2"
         values="-1 0 0 0 1 0 -1 0 0 1 0 0 -1 0 1 0 0 0 1 0 "
         in="fbSourceGraphic" /></filter></defs><sodipodi:namedview
     id="namedview1720"
     pagecolor="#ffffff"
     bordercolor="#666666"
     borderopacity="1.0"
     inkscape:pageshadow="2"
     inkscape:pageopacity="0.0"
     inkscape:pagecheckerboard="0"
     showgrid="false"
     inkscape:zoom="2.6587215"
     inkscape:cx="-10.531378"
     inkscape:cy="107.75856"
     inkscape:window-width="1920"
     inkscape:window-height="975"
     inkscape:window-x="0"
     inkscape:window-y="1080"
     inkscape:window-maximized="1"
     inkscape:current-layer="svg1718"
     inkscape:showpageshadow="2"
     inkscape:deskcolor="#d1d1d1" /><g
     id="g1982"
     inkscape:label="Logo"><circle
       style="display:inline;fill:#f9f9f9;stroke-width:9.3;stroke-linecap:square"
       id="path1803"
       cx="50.192455"
       cy="50.36805"
       r="50"
       inkscape:label="Background" /><path
       id="path632"
       style="fill:#1a1a1a;fill-opacity:1;stroke-width:5.29167;stroke-linecap:round;stroke-linejoin:round;paint-order:markers stroke fill"
       inkscape:label="Foreground"
       d="M -197.994 -255.71104 A 50 50 0 0 0 -247.994 -205.71104 A 50 50 0 0 0 -197.994 -155.71104 A 50 50 0 0 0 -147.994 -205.71104 A 50 50 0 0 0 -197.994 -255.71104 z M -196.70277 -245.71104 C -185.79368 -245.71104 -176.52734 -240.19834 -171.71796 -231.8699 L -180.39851 -225.1837 C -184.50408 -231.2834 -190.13386 -234.56738 -196.70277 -234.56738 C -203.27168 -234.56738 -208.43454 -231.2834 -208.43454 -225.1837 C -207.96533 -219.084 -205.26707 -218.02819 -197.64244 -214.15722 L -188.96188 -210.16851 C -176.41057 -204.42071 -170.4289 -198.32083 -170.4289 -188.11556 C -170.4289 -174.62584 -181.45385 -165.71104 -196.3512 -165.71104 C -209.01982 -165.71104 -219.5767 -172.04635 -225.5591 -182.48622 L -216.76136 -189.17242 C -211.60007 -181.66509 -205.38334 -176.85471 -196.46839 -176.85471 C -188.49186 -176.85471 -183.096 -181.0779 -183.096 -187.64681 C -183.096 -193.16 -186.3802 -195.50556 -194.47403 -199.25922 L -203.0374 -203.24794 C -214.2984 -208.40922 -221.10164 -214.39238 -221.10164 -224.71495 C -221.10164 -237.38356 -210.0752 -245.71104 -196.70277 -245.71104 z "
       transform="matrix(0.9,0,0,0.9,228.1946,235.13994)" /></g></svg>
